<svg width="324" height="112" viewBox="0 0 324 112" fill="none" xmlns="http://www.w3.org/2000/svg">
<path d="M34.2606 57.008C35.6766 57.008 36.8406 57.212 37.7526 57.62C38.6646 58.004 39.6606 58.58 40.7406 59.348C41.0526 59.588 41.2926 59.708 41.4606 59.708C41.9166 59.708 42.2166 58.976 42.3606 57.512H43.1886C43.0926 59.072 43.0446 61.832 43.0446 65.792H42.2166C42.0006 64.52 41.7726 63.476 41.5326 62.66C41.2926 61.82 40.9206 61.088 40.4166 60.464C39.7206 59.6 38.8086 58.916 37.6806 58.412C36.5766 57.908 35.4126 57.656 34.1886 57.656C32.6046 57.656 31.2126 58.172 30.0126 59.204C28.8126 60.236 27.8886 61.712 27.2406 63.632C26.5926 65.528 26.2686 67.748 26.2686 70.292C26.2686 74.612 26.9526 77.78 28.3206 79.796C29.7126 81.788 31.8846 82.784 34.8366 82.784C36.2766 82.784 37.5246 82.412 38.5806 81.668C39.0126 81.38 39.2886 81.104 39.4086 80.84C39.5526 80.552 39.6246 80.168 39.6246 79.688V76.232C39.6246 75.224 39.5286 74.492 39.3366 74.036C39.1446 73.58 38.8086 73.268 38.3286 73.1C37.8486 72.932 37.0686 72.824 35.9886 72.776V72.056C37.2366 72.128 38.9286 72.164 41.0646 72.164C42.6966 72.164 43.9446 72.128 44.8086 72.056V72.776C44.2566 72.824 43.8486 72.92 43.5846 73.064C43.3446 73.208 43.1766 73.484 43.0806 73.892C43.0086 74.3 42.9726 74.96 42.9726 75.872V83H42.2526C42.2286 82.52 42.1326 82.064 41.9646 81.632C41.7966 81.176 41.5686 80.948 41.2806 80.948C41.1366 80.948 40.9926 80.984 40.8486 81.056C40.7046 81.128 40.4526 81.296 40.0926 81.56C39.2526 82.208 38.3766 82.688 37.4646 83C36.5766 83.336 35.5806 83.504 34.4766 83.504C32.0046 83.504 29.8806 83 28.1046 81.992C26.3526 80.96 25.0086 79.484 24.0726 77.564C23.1366 75.644 22.6686 73.352 22.6686 70.688C22.6686 67.952 23.1606 65.552 24.1446 63.488C25.1526 61.4 26.5326 59.804 28.2846 58.7C30.0366 57.572 32.0286 57.008 34.2606 57.008ZM87.7971 81.2C87.2451 82.016 86.6931 82.604 86.1411 82.964C85.5891 83.324 84.8571 83.504 83.9451 83.504C82.9611 83.504 82.1451 83.216 81.4971 82.64C80.8731 82.064 80.4051 81.056 80.0931 79.616L79.3011 76.016C79.0131 74.768 78.7371 73.808 78.4731 73.136C78.2331 72.464 77.8611 71.924 77.3571 71.516C76.8531 71.108 76.1451 70.904 75.2331 70.904H71.8131V79.184C71.8131 80.096 71.8851 80.756 72.0291 81.164C72.1731 81.572 72.4371 81.848 72.8211 81.992C73.2291 82.136 73.8651 82.232 74.7291 82.28V83C73.6251 82.928 72.1011 82.892 70.1571 82.892C68.0931 82.892 66.5571 82.928 65.5491 83V82.28C66.4131 82.232 67.0371 82.136 67.4211 81.992C67.8291 81.848 68.1051 81.572 68.2491 81.164C68.3931 80.756 68.4651 80.096 68.4651 79.184V61.328C68.4651 60.416 68.3931 59.756 68.2491 59.348C68.1051 58.94 67.8291 58.664 67.4211 58.52C67.0371 58.376 66.4131 58.28 65.5491 58.232V57.512C66.5571 57.584 68.0211 57.62 69.9411 57.62L73.8291 57.584C74.2851 57.56 74.8011 57.548 75.3771 57.548C78.1611 57.548 80.2971 58.136 81.7851 59.312C83.2971 60.464 84.0531 61.964 84.0531 63.812C84.0531 64.748 83.8251 65.696 83.3691 66.656C82.9371 67.592 82.1931 68.444 81.1371 69.212C80.1051 69.956 78.7491 70.46 77.0691 70.724L77.5011 70.796C79.0851 71.06 80.2371 71.54 80.9571 72.236C81.6771 72.932 82.2051 74.036 82.5411 75.548L83.4411 79.22C83.6811 80.324 83.9331 81.092 84.1971 81.524C84.4611 81.956 84.8211 82.172 85.2771 82.172C85.6851 82.172 86.0211 82.064 86.2851 81.848C86.5731 81.632 86.8971 81.284 87.2571 80.804L87.7971 81.2ZM74.4771 58.232C73.7331 58.232 73.1691 58.316 72.7851 58.484C72.4251 58.652 72.1731 58.952 72.0291 59.384C71.8851 59.816 71.8131 60.464 71.8131 61.328V70.184H74.2251C76.6011 70.184 78.2331 69.656 79.1211 68.6C80.0091 67.544 80.4531 66.08 80.4531 64.208C80.4531 62.24 79.9851 60.752 79.0491 59.744C78.1131 58.736 76.5891 58.232 74.4771 58.232ZM116.073 58.232C115.209 58.28 114.573 58.376 114.165 58.52C113.781 58.664 113.517 58.94 113.373 59.348C113.229 59.756 113.157 60.416 113.157 61.328V79.184C113.157 80.096 113.229 80.756 113.373 81.164C113.517 81.572 113.781 81.848 114.165 81.992C114.573 82.136 115.209 82.232 116.073 82.28V83C114.969 82.928 113.445 82.892 111.501 82.892C109.437 82.892 107.901 82.928 106.893 83V82.28C107.757 82.232 108.381 82.136 108.765 81.992C109.173 81.848 109.449 81.572 109.593 81.164C109.737 80.756 109.809 80.096 109.809 79.184V61.328C109.809 60.416 109.737 59.756 109.593 59.348C109.449 58.94 109.173 58.664 108.765 58.52C108.381 58.376 107.757 58.28 106.893 58.232V57.512C107.901 57.584 109.437 57.62 111.501 57.62C113.421 57.62 114.945 57.584 116.073 57.512V58.232ZM165.424 58.232C164.56 58.28 163.924 58.376 163.516 58.52C163.132 58.664 162.868 58.94 162.724 59.348C162.58 59.756 162.508 60.416 162.508 61.328V79.184C162.508 80.096 162.58 80.756 162.724 81.164C162.868 81.572 163.132 81.848 163.516 81.992C163.924 82.136 164.56 82.232 165.424 82.28V83C164.32 82.928 162.796 82.892 160.852 82.892C158.788 82.892 157.252 82.928 156.244 83V82.28C157.108 82.232 157.732 82.136 158.116 81.992C158.524 81.848 158.8 81.572 158.944 81.164C159.088 80.756 159.16 80.096 159.16 79.184V59.888L150.484 83.18H149.908L140.836 59.816V78.824C140.836 79.76 140.908 80.456 141.052 80.912C141.22 81.368 141.532 81.704 141.988 81.92C142.444 82.112 143.152 82.232 144.112 82.28V83C143.248 82.928 142.024 82.892 140.44 82.892C139 82.892 137.884 82.928 137.092 83V82.28C137.932 82.232 138.556 82.112 138.964 81.92C139.372 81.704 139.648 81.368 139.792 80.912C139.936 80.432 140.008 79.736 140.008 78.824V61.328C140.008 60.416 139.936 59.756 139.792 59.348C139.648 58.94 139.372 58.664 138.964 58.52C138.58 58.376 137.956 58.28 137.092 58.232V57.512C137.884 57.584 139 57.62 140.44 57.62C141.688 57.62 142.708 57.584 143.5 57.512L151.42 78.356L159.16 57.62H160.852C162.796 57.62 164.32 57.584 165.424 57.512V58.232ZM198.403 69.536C201.043 69.896 202.927 70.664 204.055 71.84C205.183 72.992 205.747 74.384 205.747 76.016C205.747 77.384 205.399 78.596 204.703 79.652C204.007 80.708 203.011 81.536 201.715 82.136C200.419 82.712 198.883 83 197.107 83C196.459 83 195.907 82.988 195.451 82.964C193.915 82.916 192.403 82.892 190.915 82.892C188.947 82.892 187.459 82.928 186.451 83V82.28C187.315 82.232 187.939 82.136 188.323 81.992C188.731 81.848 189.007 81.572 189.151 81.164C189.295 80.756 189.367 80.096 189.367 79.184V61.328C189.367 60.416 189.295 59.756 189.151 59.348C189.007 58.94 188.731 58.664 188.323 58.52C187.939 58.376 187.315 58.28 186.451 58.232V57.512C187.459 57.584 188.923 57.62 190.843 57.62L194.731 57.584C195.187 57.56 195.703 57.548 196.279 57.548C198.727 57.548 200.599 58.064 201.895 59.096C203.215 60.128 203.875 61.496 203.875 63.2C203.875 64.592 203.431 65.84 202.543 66.944C201.679 68.048 200.299 68.888 198.403 69.464V69.536ZM195.379 58.232C194.635 58.232 194.071 58.316 193.687 58.484C193.327 58.652 193.075 58.952 192.931 59.384C192.787 59.816 192.715 60.464 192.715 61.328V69.464H195.127C197.095 69.464 198.463 68.936 199.231 67.88C200.023 66.8 200.419 65.372 200.419 63.596C200.419 61.796 200.023 60.452 199.231 59.564C198.439 58.676 197.155 58.232 195.379 58.232ZM195.415 82.172C199.903 82.172 202.147 80.072 202.147 75.872C202.147 73.976 201.631 72.536 200.599 71.552C199.591 70.568 197.971 70.076 195.739 70.076H192.715V79.184C192.715 80.048 192.787 80.684 192.931 81.092C193.075 81.5 193.327 81.788 193.687 81.956C194.071 82.1 194.647 82.172 195.415 82.172ZM245.535 79.976C246.111 81.464 246.939 82.232 248.019 82.28V83C247.059 82.928 245.775 82.892 244.167 82.892C242.103 82.892 240.567 82.928 239.559 83V82.28C240.471 82.232 241.119 82.124 241.503 81.956C241.911 81.764 242.115 81.428 242.115 80.948C242.115 80.54 241.971 79.976 241.683 79.256L239.487 73.352H230.775L229.299 77.168C228.819 78.464 228.579 79.448 228.579 80.12C228.579 80.864 228.831 81.404 229.335 81.74C229.863 82.076 230.655 82.256 231.711 82.28V83C230.343 82.928 228.963 82.892 227.571 82.892C226.491 82.892 225.591 82.928 224.871 83V82.28C226.071 81.992 227.019 80.948 227.715 79.148L236.175 57.332H236.751L245.535 79.976ZM239.199 72.632L235.167 61.868L231.063 72.632H239.199ZM282.474 57.62C283.554 57.62 284.454 57.584 285.174 57.512V58.232C284.694 58.352 284.226 58.664 283.77 59.168C283.314 59.648 282.822 60.404 282.294 61.436L276.642 72.632V79.184C276.642 80.096 276.714 80.756 276.858 81.164C277.002 81.572 277.266 81.848 277.65 81.992C278.058 82.136 278.694 82.232 279.558 82.28V83C278.454 82.928 276.93 82.892 274.986 82.892C272.922 82.892 271.386 82.928 270.378 83V82.28C271.242 82.232 271.866 82.136 272.25 81.992C272.658 81.848 272.934 81.572 273.078 81.164C273.222 80.756 273.294 80.096 273.294 79.184V73.784L265.986 60.284C265.554 59.492 265.17 58.964 264.834 58.7C264.522 58.412 264.21 58.268 263.898 58.268V57.512C264.834 57.584 265.89 57.62 267.066 57.62C269.394 57.62 271.074 57.584 272.106 57.512V58.268C270.426 58.268 269.586 58.724 269.586 59.636C269.586 59.996 269.706 60.416 269.946 60.896L275.922 72.38L280.53 63.236C281.178 61.964 281.502 60.932 281.502 60.14C281.502 59.468 281.238 58.988 280.71 58.7C280.182 58.412 279.39 58.256 278.334 58.232V57.512C279.702 57.584 281.082 57.62 282.474 57.62Z" fill="white"/>
<path d="M64.8896 98.9H66.1246V108H64.8896V98.9ZM74.7031 98.9H76.0421L80.5271 105.712V98.9H81.7751V108H80.7221L75.9381 100.811V108H74.7031V98.9ZM94.4124 108.182C93.5284 108.182 92.7397 107.987 92.0464 107.597C91.3531 107.207 90.8071 106.657 90.4084 105.946C90.0184 105.227 89.8234 104.395 89.8234 103.45C89.8234 102.505 90.0227 101.678 90.4214 100.967C90.8201 100.248 91.3704 99.693 92.0724 99.303C92.7744 98.913 93.5717 98.718 94.4644 98.718C94.9064 98.718 95.3397 98.7657 95.7644 98.861C96.1891 98.9563 96.5661 99.0863 96.8954 99.251L96.7654 100.395C95.9854 100.022 95.2141 99.836 94.4514 99.836C93.7581 99.836 93.1644 99.9963 92.6704 100.317C92.1764 100.629 91.8037 101.058 91.5524 101.604C91.3011 102.15 91.1754 102.765 91.1754 103.45C91.1754 104.135 91.3011 104.75 91.5524 105.296C91.8037 105.842 92.1721 106.275 92.6574 106.596C93.1427 106.908 93.7321 107.064 94.4254 107.064C95.2401 107.064 96.0201 106.882 96.7654 106.518L96.8954 107.662C96.1414 108.009 95.3137 108.182 94.4124 108.182ZM108.654 108.182C107.788 108.182 107.012 107.987 106.327 107.597C105.651 107.207 105.123 106.657 104.741 105.946C104.36 105.227 104.169 104.395 104.169 103.45C104.169 102.505 104.36 101.678 104.741 100.967C105.123 100.248 105.651 99.693 106.327 99.303C107.012 98.913 107.788 98.718 108.654 98.718C109.521 98.718 110.292 98.913 110.968 99.303C111.653 99.693 112.186 100.248 112.567 100.967C112.949 101.678 113.139 102.505 113.139 103.45C113.139 104.395 112.949 105.227 112.567 105.946C112.186 106.657 111.653 107.207 110.968 107.597C110.292 107.987 109.521 108.182 108.654 108.182ZM108.654 106.986C109.33 106.986 109.907 106.834 110.383 106.531C110.86 106.219 111.215 105.799 111.449 105.27C111.692 104.733 111.813 104.126 111.813 103.45C111.813 102.774 111.692 102.172 111.449 101.643C111.215 101.106 110.86 100.685 110.383 100.382C109.907 100.07 109.33 99.914 108.654 99.914C107.978 99.914 107.402 100.07 106.925 100.382C106.449 100.685 106.089 101.106 105.846 101.643C105.612 102.172 105.495 102.774 105.495 103.45C105.495 104.126 105.612 104.733 105.846 105.27C106.089 105.799 106.449 106.219 106.925 106.531C107.402 106.834 107.978 106.986 108.654 106.986ZM121.193 98.9H124.144C125.132 98.9 125.904 99.1297 126.458 99.589C127.013 100.04 127.29 100.733 127.29 101.669C127.29 102.882 126.762 103.736 125.704 104.23L127.745 108H126.237L124.391 104.451H124.326H122.493V108H121.193V98.9ZM124.131 103.346C124.738 103.346 125.202 103.199 125.522 102.904C125.843 102.609 126.003 102.198 126.003 101.669C126.003 101.14 125.843 100.733 125.522 100.447C125.21 100.152 124.747 100.005 124.131 100.005H122.493V103.346H124.131ZM135.526 98.9H138.529C139.5 98.9 140.254 99.1383 140.791 99.615C141.337 100.083 141.61 100.828 141.61 101.851C141.61 102.856 141.337 103.602 140.791 104.087C140.245 104.572 139.491 104.815 138.529 104.815H136.826V108H135.526V98.9ZM138.347 103.71C139.015 103.71 139.513 103.558 139.842 103.255C140.172 102.952 140.336 102.488 140.336 101.864C140.336 101.231 140.176 100.763 139.855 100.46C139.543 100.157 139.041 100.005 138.347 100.005H136.826V103.71H138.347ZM153.431 108.182C152.564 108.182 151.788 107.987 151.104 107.597C150.428 107.207 149.899 106.657 149.518 105.946C149.136 105.227 148.946 104.395 148.946 103.45C148.946 102.505 149.136 101.678 149.518 100.967C149.899 100.248 150.428 99.693 151.104 99.303C151.788 98.913 152.564 98.718 153.431 98.718C154.297 98.718 155.069 98.913 155.745 99.303C156.429 99.693 156.962 100.248 157.344 100.967C157.725 101.678 157.916 102.505 157.916 103.45C157.916 104.395 157.725 105.227 157.344 105.946C156.962 106.657 156.429 107.207 155.745 107.597C155.069 107.987 154.297 108.182 153.431 108.182ZM153.431 106.986C154.107 106.986 154.683 106.834 155.16 106.531C155.636 106.219 155.992 105.799 156.226 105.27C156.468 104.733 156.59 104.126 156.59 103.45C156.59 102.774 156.468 102.172 156.226 101.643C155.992 101.106 155.636 100.685 155.16 100.382C154.683 100.07 154.107 99.914 153.431 99.914C152.755 99.914 152.178 100.07 151.702 100.382C151.225 100.685 150.865 101.106 150.623 101.643C150.389 102.172 150.272 102.774 150.272 103.45C150.272 104.126 150.389 104.733 150.623 105.27C150.865 105.799 151.225 106.219 151.702 106.531C152.178 106.834 152.755 106.986 153.431 106.986ZM165.97 98.9H168.921C169.909 98.9 170.68 99.1297 171.235 99.589C171.789 100.04 172.067 100.733 172.067 101.669C172.067 102.882 171.538 103.736 170.481 104.23L172.522 108H171.014L169.168 104.451H169.103H167.27V108H165.97V98.9ZM168.908 103.346C169.514 103.346 169.978 103.199 170.299 102.904C170.619 102.609 170.78 102.198 170.78 101.669C170.78 101.14 170.619 100.733 170.299 100.447C169.987 100.152 169.523 100.005 168.908 100.005H167.27V103.346H168.908ZM185.009 105.543H181.525L180.654 108H179.354L182.617 98.9H183.917L187.18 108H185.88L185.009 105.543ZM184.619 104.425L183.267 100.629L181.915 104.425H184.619ZM195.922 100.018H193.27V98.9H199.809V100.018H197.157V108H195.922V100.018ZM207.547 98.9H213.098V100.018H208.782V102.683H212.214V103.801H208.782V106.882H213.215V108H207.547V98.9ZM221.245 98.9H224.612C225.496 98.9 226.28 99.082 226.965 99.446C227.65 99.8013 228.183 100.326 228.564 101.019C228.945 101.704 229.136 102.514 229.136 103.45C229.136 104.386 228.945 105.201 228.564 105.894C228.183 106.579 227.65 107.103 226.965 107.467C226.28 107.822 225.496 108 224.612 108H221.245V98.9ZM224.612 106.882C225.626 106.882 226.406 106.574 226.952 105.959C227.507 105.335 227.784 104.499 227.784 103.45C227.784 102.401 227.507 101.569 226.952 100.954C226.406 100.33 225.626 100.018 224.612 100.018H222.48V106.882H224.612Z" fill="white"/>
<path d="M110 11.7907C116.704 10.625 123.369 9.45928 129.954 7.83915C136.539 6.21902 143.133 4.65816 149.838 3.32451C156.55 1.92287 163.345 0.933103 170.181 0.360864L175.339 0.133671C177.055 0.0743975 178.781 -0.054043 180.497 0.0249877L185.655 0.123782H188.229L190.793 0.311483L195.921 0.746153L198.485 0.963489C199.333 1.0524 200.181 1.20058 201.029 1.30925L206.118 2.03039C207.804 2.29712 209.52 2.45519 211.196 2.81083L221.253 4.8755C224.605 5.53738 227.887 6.49563 231.23 7.31557C237.874 8.88631 244.319 11.0893 250.824 13.0651C252.451 13.559 254.047 14.1418 255.653 14.7148L260.452 16.4436C263.645 17.6027 266.827 18.7882 270 20C266.675 19.1833 263.382 18.347 260.123 17.4908C256.83 16.661 253.588 15.6731 250.276 14.9322L240.398 12.5415C238.752 12.1661 237.126 11.6919 235.46 11.356L230.471 10.3089C217.345 7.2863 204.003 5.26837 190.564 4.2729L188.05 4.06543L185.535 3.99627L180.547 3.85798C178.871 3.76907 177.195 3.85798 175.558 3.91725L170.57 4.05557C163.857 4.48129 157.171 5.24293 150.536 6.33758C143.872 7.40449 137.197 8.68873 130.463 9.72601C123.688 10.81 116.856 11.4995 110 11.7907Z" fill="white"/>
<path d="M38 25.1808L60.9613 20.3596C68.6384 18.8283 76.3853 17.4748 84.1922 16.556C99.8358 14.6824 115.639 14.5002 131.323 16.0126C146.98 17.5538 162.471 20.4564 177.615 24.6868C192.819 28.6386 207.504 34.181 222 40C218.259 38.8408 214.533 37.6553 210.819 36.4434C207.105 35.248 203.401 33.9933 199.618 33.0053L188.417 29.7846C186.55 29.2116 184.643 28.7967 182.756 28.3224L177.076 26.9196L171.395 25.5167C169.498 25.0919 167.582 24.7263 165.675 24.3311L159.925 23.2049C158.018 22.8196 156.111 22.3948 154.184 22.128L142.664 20.241L131.063 18.9468L129.616 18.7789L128.158 18.6801L125.253 18.4825L119.433 18.0972C117.496 17.9193 115.549 17.9687 113.603 17.9095L107.772 17.7909C103.889 17.7909 99.9955 17.9391 96.1021 18.0083L90.2819 18.3936C88.3452 18.522 86.3885 18.5911 84.4617 18.8283C80.5882 19.2136 76.7048 19.5791 72.8413 20.1225C68.9778 20.6658 65.1043 21.1895 61.2408 21.7625L49.6504 23.5605C47.7136 23.847 45.7869 24.1829 43.8402 24.4299L38 25.1808Z" fill="white"/>
<path d="M118 40C126.012 36.3948 134.37 33.7128 142.93 32.0004C147.2 31.0952 151.52 30.411 155.86 29.8953C160.2 29.3795 164.56 29.148 168.92 29.0322C173.28 28.9164 177.65 29.1269 182.01 29.4427C186.37 29.7585 190.7 30.3689 195.01 31.2005C203.582 32.8215 211.961 35.4191 220 38.9474C215.83 37.6528 211.7 36.3055 207.46 35.3792C203.22 34.4529 199 33.5372 194.73 32.8635C186.21 31.5773 177.606 31.0071 169 31.1584C160.372 31.3186 151.766 32.1382 143.25 33.6109C138.99 34.3582 134.75 35.2213 130.54 36.2844C126.33 37.3475 122.11 38.5369 118 40Z" fill="white"/>
</svg>
